<svg width="17" height="17" viewBox="0 0 17 17" fill="none" xmlns="http://www.w3.org/2000/svg">
<g id="location-sign" opacity="0.9">
<g id="Group">
<path id="Vector" d="M8.49963 0C5.24672 0 2.60034 2.64677 2.60034 5.89976C2.60034 9.03104 7.95287 16.3468 8.18077 16.6566L8.39347 16.9461C8.41835 16.9801 8.45795 17 8.49963 17C8.54194 17 8.5813 16.9801 8.60643 16.9461L8.819 16.6566C9.04703 16.3468 14.3994 9.03104 14.3994 5.89976C14.3994 2.64677 11.7526 0 8.49963 0ZM8.49963 3.78648C9.66515 3.78648 10.6129 4.73427 10.6129 5.89976C10.6129 7.06464 9.66511 8.01304 8.49963 8.01304C7.33479 8.01304 6.38634 7.06464 6.38634 5.89976C6.38634 4.73427 7.33475 3.78648 8.49963 3.78648Z" fill="white"/>
</g>
</g>
</svg>
