<svg width="20" height="25" viewBox="0 0 20 25" fill="none" xmlns="http://www.w3.org/2000/svg">
<g id="Group">
<path id="Vector" d="M9.65888 12.2266C12.4828 12.2266 14.7722 9.48964 14.7722 6.11336C14.7722 2.737 14.0205 0 9.65888 0C5.29721 0 4.54541 2.737 4.54541 6.11336C4.54541 9.48964 6.83484 12.2266 9.65888 12.2266Z" fill="#D2D2D2"/>
<path id="Vector_2" d="M0.00100584 21.5609C-0.000736324 21.5029 0.000134757 21.3551 0.00100584 21.5609V21.5609Z" fill="#D2D2D2"/>
<path id="Vector_3" d="M19.3168 21.7217C19.3177 21.3307 19.3195 21.6654 19.3168 21.7217V21.7217Z" fill="#D2D2D2"/>
<path id="Vector_4" d="M19.3058 21.314C19.2111 15.4325 18.4307 13.7565 12.4589 12.6957C12.4589 12.6957 11.6182 13.75 9.65893 13.75C7.69961 13.75 6.85884 12.6957 6.85884 12.6957C0.952213 13.745 0.124364 15.396 0.0155131 21.123C0.0065873 21.5906 0.00245098 21.6152 0.000854492 21.5609C0.00121733 21.6626 0.00165257 21.8507 0.00165257 22.1788C0.00165257 22.1788 1.42339 25 9.65893 25C17.8943 25 19.3162 22.1788 19.3162 22.1788C19.3162 21.968 19.3164 21.8215 19.3166 21.7218C19.315 21.7553 19.3118 21.6903 19.3058 21.314Z" fill="#D2D2D2"/>
</g>
</svg>
