<svg width="14" height="14" viewBox="0 0 14 14" fill="none" xmlns="http://www.w3.org/2000/svg">
<g id="star" clip-path="url(#clip0_8_1110)">
<path id="Vector" d="M7.676 0.72599L9.25502 3.92549C9.36482 4.14802 9.57713 4.30221 9.82272 4.33784L13.3537 4.85094C13.9722 4.94088 14.219 5.70075 13.7716 6.13675L11.2166 8.6272C11.039 8.80037 10.9579 9.05006 10.9999 9.29449L11.6029 12.8111C11.7087 13.427 11.0621 13.8966 10.509 13.606L7.35097 11.9458C7.13136 11.8305 6.86882 11.8305 6.64922 11.9458L3.49118 13.606C2.93808 13.8969 2.29152 13.427 2.39723 12.8111L3.00028 9.29449C3.04233 9.05006 2.96115 8.80037 2.78359 8.6272L0.228605 6.13675C-0.218788 5.70046 0.0279791 4.94059 0.646502 4.85094L4.17746 4.33784C4.42306 4.30221 4.63536 4.14802 4.74517 3.92549L6.32418 0.72599C6.60045 0.165581 7.39945 0.165581 7.676 0.72599Z" fill="#FFCD00"/>
</g>
<defs>
<clipPath id="clip0_8_1110">
<rect width="14" height="14" fill="white"/>
</clipPath>
</defs>
</svg>
